<svg width="32" height="32" viewBox="0 0 32 32" fill="none" xmlns="http://www.w3.org/2000/svg">
<g style="mix-blend-mode:overlay">
<path d="M5.55897 17.8666V22.3166C5.54976 22.8695 5.68168 23.4156 5.94229 23.9033C6.20289 24.3911 6.58355 24.8043 7.0483 25.1039L14.2083 29.4273C14.6211 29.6835 15.0972 29.8192 15.583 29.8192C16.0688 29.8192 16.5449 29.6835 16.9576 29.4273L24.1176 25.1039C24.5824 24.8043 24.9631 24.3911 25.2237 23.9033C25.4843 23.4156 25.6162 22.8695 25.607 22.3166V17.8666L16.957 23.0913C16.5442 23.3475 16.0681 23.4832 15.5823 23.4832C15.0965 23.4832 14.6204 23.3475 14.2076 23.0913L5.55897 17.8666ZM14.2076 2.5666L2.13364 9.85193C1.90553 10.0059 1.7187 10.2134 1.58953 10.4564C1.46037 10.6994 1.39282 10.9704 1.39282 11.2456C1.39282 11.5208 1.46037 11.7918 1.58953 12.0348C1.7187 12.2778 1.90553 12.4853 2.13364 12.6393L14.2076 19.9239C14.6204 20.1801 15.0965 20.3159 15.5823 20.3159C16.0681 20.3159 16.5442 20.1801 16.957 19.9239L28.467 12.9719V22.3333C28.4487 22.5325 28.4722 22.7334 28.5359 22.923C28.5997 23.1127 28.7023 23.287 28.8371 23.4348C28.972 23.5826 29.1362 23.7006 29.3193 23.7814C29.5023 23.8622 29.7002 23.9039 29.9003 23.9039C30.1004 23.9039 30.2983 23.8622 30.4813 23.7814C30.6644 23.7006 30.8286 23.5826 30.9635 23.4348C31.0983 23.287 31.2009 23.1127 31.2647 22.923C31.3284 22.7334 31.3519 22.5325 31.3336 22.3333V12.1799C31.3382 11.9035 31.2722 11.6305 31.1419 11.3867C31.0116 11.1429 30.8213 10.9364 30.589 10.7866L16.957 2.5666C16.5416 2.31788 16.0665 2.18652 15.5823 2.18652C15.0981 2.18652 14.623 2.31788 14.2076 2.5666Z" fill="white"/>
</g>
</svg>
