<svg width="33" height="32" viewBox="0 0 33 32" fill="none" xmlns="http://www.w3.org/2000/svg">
<path d="M16.5 3C23.6797 3 29.5 8.8203 29.5 16C29.5 23.1797 23.6797 29 16.5 29C9.3203 29 3.5 23.1797 3.5 16C3.5 8.8203 9.3203 3 16.5 3ZM16.5 18.666C15.7639 18.6662 15.1672 19.2639 15.167 20C15.1672 20.7361 15.7639 21.3328 16.5 21.333C17.2361 21.3328 17.8338 20.7361 17.834 20C17.8338 19.2639 17.2361 18.6662 16.5 18.666ZM16.5 10.916C16.0862 10.9162 15.7504 11.2522 15.75 11.666V15.666C15.75 16.0801 16.0859 16.4158 16.5 16.416C16.9141 16.4158 17.25 16.0801 17.25 15.666V11.666C17.2496 11.2522 16.9138 10.9162 16.5 10.916Z" fill="#1B2BB0"/>
</svg>
