<svg width="41" height="40" viewBox="0 0 41 40" fill="none" xmlns="http://www.w3.org/2000/svg">
<path d="M20.5 3.75C29.4746 3.75 36.75 11.0254 36.75 20C36.75 28.9746 29.4746 36.25 20.5 36.25C11.5254 36.25 4.25 28.9746 4.25 20C4.25 11.0254 11.5254 3.75 20.5 3.75ZM28.4404 21.8125C28.0847 21.6572 27.674 21.7999 27.4873 22.1309L27.4531 22.2002C26.2822 24.8798 23.6082 26.7499 20.5 26.75C17.4888 26.7499 14.8863 24.9943 13.6621 22.4482L13.5479 22.2002L13.5137 22.1309C13.3272 21.7999 12.9162 21.6576 12.5605 21.8125C12.2047 21.968 12.0293 22.3666 12.1455 22.7285L12.1729 22.7998L12.3096 23.0977C13.7744 26.1444 16.8906 28.2499 20.5 28.25C24.2258 28.2499 27.4262 26.0062 28.8271 22.7998C28.9927 22.4204 28.8197 21.9784 28.4404 21.8125ZM16.333 13.333C14.9526 13.3332 13.8332 14.4526 13.833 15.833C13.833 17.2136 14.9524 18.3328 16.333 18.333C17.7137 18.333 18.833 17.2137 18.833 15.833C18.8328 14.4524 17.7136 13.333 16.333 13.333ZM24.667 13.333C23.2864 13.333 22.1672 14.4524 22.167 15.833C22.167 17.2137 23.2863 18.333 24.667 18.333C26.0476 18.3328 27.167 17.2136 27.167 15.833C27.1668 14.4526 26.0474 13.3332 24.667 13.333ZM20.8359 4.3291C20.4655 4.14389 20.0154 4.29466 19.8301 4.66504H19.8291V4.66602L19.8281 4.66699C19.8278 4.66775 19.8276 4.66892 19.8271 4.66992C19.8258 4.67258 19.8234 4.67642 19.8213 4.68066C19.8171 4.68921 19.8116 4.70119 19.8047 4.71582C19.7906 4.74535 19.7716 4.78733 19.748 4.83984C19.701 4.94485 19.6369 5.09403 19.5664 5.27734C19.4261 5.64218 19.2545 6.15325 19.1396 6.72754C18.9207 7.82251 18.8551 9.41542 19.9697 10.5303C20.4791 11.0396 21.0258 11.3282 21.5771 11.4385C22.1229 11.5476 22.6225 11.4725 23.0293 11.3369C23.4329 11.2023 23.7606 11.0038 23.9834 10.8447C24.0962 10.7642 24.1861 10.6901 24.25 10.6348C24.2819 10.6072 24.3081 10.5842 24.3271 10.5664C24.3365 10.5577 24.3445 10.5499 24.3506 10.5439L24.3633 10.5312L23.834 10C24.3355 10.5015 24.3631 10.5286 24.3643 10.5303C24.6568 10.2374 24.6568 9.76256 24.3643 9.46973C24.0716 9.17707 23.5967 9.17658 23.3037 9.46875L23.3027 9.4707C23.2966 9.47644 23.2842 9.4875 23.2676 9.50195C23.2339 9.53115 23.1804 9.57464 23.1113 9.62402C22.9696 9.72523 22.7758 9.83934 22.5547 9.91309C22.3367 9.98572 22.1062 10.0147 21.8711 9.96777C21.6415 9.92177 21.3548 9.7931 21.0312 9.46973C20.4795 8.91798 20.4137 8.01063 20.6113 7.02246C20.7047 6.55543 20.8458 6.12854 20.9658 5.81641C21.0254 5.66146 21.0787 5.53681 21.1162 5.45312C21.1349 5.41139 21.1496 5.37944 21.1592 5.35938C21.1638 5.34972 21.1679 5.34297 21.1699 5.33887C21.1709 5.33684 21.1706 5.3345 21.1709 5.33398C21.3552 4.9638 21.2059 4.51424 20.8359 4.3291Z" fill="#FABC1C"/>
</svg>
