<svg width="32" height="32" viewBox="0 0 32 32" fill="none" xmlns="http://www.w3.org/2000/svg">
<path d="M15.1334 29H16.8667C17.6167 29 17.9916 29 18.2545 28.809C18.3394 28.7473 18.414 28.6727 18.4757 28.5878C18.6667 28.3249 18.6667 27.9499 18.6667 27.2V18.1667H20.8667C21.6167 18.1667 21.9916 18.1667 22.2545 17.9757C22.3394 17.914 22.414 17.8393 22.4757 17.7545C22.6667 17.4916 22.6667 17.1166 22.6667 16.3667V14.9111C22.6667 14.1612 22.6667 13.7862 22.4757 13.5233C22.414 13.4384 22.3394 13.3638 22.2545 13.3021C21.9916 13.1111 21.6167 13.1111 20.8667 13.1111H18.6667V9.85556C18.6667 9.10561 18.6667 8.73064 18.8577 8.46777C18.9194 8.38288 18.994 8.30822 19.0789 8.24654C19.3418 8.05556 19.7168 8.05556 20.4667 8.05556H20.8667C21.6167 8.05556 21.9916 8.05556 22.2545 7.86457C22.3394 7.80289 22.414 7.72824 22.4757 7.64334C22.6667 7.38048 22.6667 7.0055 22.6667 6.25556V4.8C22.6667 4.05005 22.6667 3.67508 22.4757 3.41221C22.414 3.32732 22.3394 3.25266 22.2545 3.19098C21.9916 3 21.6167 3 20.8667 3H19.6334C17.0086 3 15.6962 3 14.7761 3.66844C14.479 3.88432 14.2177 4.14562 14.0018 4.44275C13.3334 5.36278 13.3334 6.67519 13.3334 9.3V13.1111H11.1334C10.3834 13.1111 10.0085 13.1111 9.74559 13.3021C9.66069 13.3638 9.58604 13.4384 9.52436 13.5233C9.33337 13.7862 9.33337 14.1612 9.33337 14.9111V16.3667C9.33337 17.1166 9.33337 17.4916 9.52436 17.7545C9.58604 17.8393 9.66069 17.914 9.74559 17.9757C10.0085 18.1667 10.3834 18.1667 11.1334 18.1667H13.3334V27.2C13.3334 27.9499 13.3334 28.3249 13.5244 28.5878C13.586 28.6727 13.6607 28.7473 13.7456 28.809C14.0085 29 14.3834 29 15.1334 29Z" fill="white"/>
</svg>
