<svg width="29" height="28" viewBox="0 0 29 28" fill="none" xmlns="http://www.w3.org/2000/svg">
<path d="M24.167 12.3336C24.7087 12.3336 24.9797 12.3336 25.2061 12.3717C26.3619 12.5661 27.2675 13.4717 27.4619 14.6276C27.4999 14.8539 27.5 15.1249 27.5 15.6666C27.223 20.3751 23.9537 23.6081 19.6826 24.6442C19.7783 24.8544 19.833 25.0876 19.833 25.3336C19.8328 26.2538 19.0872 26.9995 18.167 26.9996H10.833C9.91278 26.9995 9.16715 26.2538 9.16699 25.3336C9.16699 25.088 9.22102 24.8551 9.31641 24.6451C5.02955 23.61 1.72164 20.3765 1.5 15.6666C1.5 15.1249 1.50006 14.8539 1.53809 14.6276C1.73245 13.4717 2.6381 12.5661 3.79395 12.3717C4.02033 12.3336 4.29127 12.3336 4.83301 12.3336H24.167ZM11.9893 6.35901C12.7727 2.91893 14.7458 0.551823 16.3955 1.0719C17.2116 1.32946 17.7959 2.24557 18.083 3.52209H16.3818C15.8296 3.52209 15.3818 3.96981 15.3818 4.52209C15.3819 5.07429 15.8296 5.52209 16.3818 5.52209H18.2842C18.2826 5.96799 18.2538 6.43243 18.1963 6.90784H16.0791C15.527 6.90802 15.0791 7.35566 15.0791 7.90784C15.0792 8.4599 15.5271 8.90766 16.0791 8.90784H17.8174C17.7002 9.38756 17.5215 9.88095 17.083 10.3336H4.3125C4.30716 10.3319 3.98506 10.2236 4.31445 8.85413C4.64664 7.47313 5.46238 6.30117 6.78809 6.38147C6.98887 6.39372 7.1459 6.47526 7.29199 6.57385C7.29436 6.55352 7.29525 6.53267 7.29785 6.51233C7.3697 5.95068 7.54958 5.2166 8.0752 4.68909C8.35801 4.40526 8.66932 4.17293 9.04297 4.03674C9.42158 3.89882 9.80392 3.88114 10.1924 3.93225C10.6028 3.98647 10.8918 4.3636 10.8379 4.77405C10.7837 5.18461 10.4067 5.47362 9.99609 5.41956C9.78217 5.39144 9.654 5.41051 9.55664 5.44592C9.45418 5.48329 9.32269 5.56204 9.1377 5.74768C8.97384 5.91213 8.85022 6.22251 8.78906 6.67249C8.79071 6.67129 8.79327 6.67075 8.79492 6.66956C8.98213 6.53355 9.17013 6.39743 9.43359 6.38147C10.5438 6.31445 11.2959 7.12602 11.7061 8.20276C11.7534 7.60589 11.8465 6.98605 11.9893 6.35901ZM21.4316 4.99182C23.31 4.99182 24.8329 6.78283 24.833 8.9928C24.833 9.46288 24.7642 9.91461 24.6377 10.3336H18.5C18.0308 10.3336 18.0306 9.85813 18.0312 8.9928C18.0314 6.783 19.5534 4.99209 21.4316 4.99182Z" fill="#FABC1C"/>
<path d="M24.167 12.3336V11.5836V12.3336ZM25.2061 12.3717L25.3304 11.6321L25.3304 11.6321L25.2061 12.3717ZM27.4619 14.6276L28.2015 14.5033L28.2015 14.5032L27.4619 14.6276ZM27.5 15.6666L28.2487 15.7107C28.2496 15.696 28.25 15.6813 28.25 15.6666H27.5ZM19.6826 24.6442L19.5058 23.9153C19.2885 23.968 19.106 24.115 19.0082 24.3161C18.9104 24.5172 18.9074 24.7514 19 24.955L19.6826 24.6442ZM19.833 25.3336L20.583 25.3337V25.3336H19.833ZM18.167 26.9996V27.7496H18.1671L18.167 26.9996ZM10.833 26.9996L10.8329 27.7496H10.833V26.9996ZM9.16699 25.3336H8.41699V25.3337L9.16699 25.3336ZM9.31641 24.6451L9.99922 24.9554C10.0917 24.7518 10.0886 24.5175 9.99053 24.3164C9.8925 24.1154 9.70986 23.9686 9.49244 23.9161L9.31641 24.6451ZM1.5 15.6666H0.75C0.75 15.6784 0.750276 15.6901 0.750829 15.7019L1.5 15.6666ZM1.53809 14.6276L0.79847 14.5032L0.798451 14.5033L1.53809 14.6276ZM3.79395 12.3717L3.66957 11.6321L3.66955 11.6321L3.79395 12.3717ZM4.83301 12.3336V11.5836V12.3336ZM11.9893 6.35901L11.258 6.19247L11.258 6.19248L11.9893 6.35901ZM16.3955 1.0719L16.6212 0.356671L16.621 0.356602L16.3955 1.0719ZM18.083 3.52209V4.27209C18.3108 4.27209 18.5263 4.16854 18.6686 3.99065C18.811 3.81276 18.8647 3.57982 18.8147 3.35755L18.083 3.52209ZM15.3818 4.52209H14.6318V4.52224L15.3818 4.52209ZM18.2842 5.52209L19.0342 5.52479C19.0349 5.32541 18.9562 5.13395 18.8155 4.99272C18.6747 4.85148 18.4836 4.77209 18.2842 4.77209V5.52209ZM18.1963 6.90784V7.65784C18.5757 7.65784 18.8953 7.3745 18.9409 6.99784L18.1963 6.90784ZM16.0791 6.90784V6.15784H16.0789L16.0791 6.90784ZM15.0791 7.90784H14.3291V7.90802L15.0791 7.90784ZM16.0791 8.90784L16.0789 9.65784H16.0791V8.90784ZM17.8174 8.90784L18.546 9.0858C18.6006 8.86213 18.5495 8.62577 18.4073 8.44468C18.2651 8.26359 18.0476 8.15784 17.8174 8.15784V8.90784ZM17.083 10.3336V11.0836C17.286 11.0836 17.4804 11.0013 17.6217 10.8555L17.083 10.3336ZM4.3125 10.3336L4.08623 11.0487C4.15942 11.0718 4.23573 11.0836 4.3125 11.0836V10.3336ZM4.31445 8.85413L3.58525 8.67872L3.58525 8.67873L4.31445 8.85413ZM6.78809 6.38147L6.83378 5.63286L6.83343 5.63284L6.78809 6.38147ZM7.29199 6.57385L6.87245 7.19553C7.08947 7.34199 7.36715 7.36467 7.60506 7.25538C7.84297 7.1461 8.00668 6.92066 8.03696 6.6606L7.29199 6.57385ZM7.29785 6.51233L6.55391 6.41716L6.55391 6.41722L7.29785 6.51233ZM8.0752 4.68909L7.54392 4.15971L7.54391 4.15971L8.0752 4.68909ZM9.04297 4.03674L8.78625 3.33205L8.78614 3.33209L9.04297 4.03674ZM10.1924 3.93225L10.2906 3.18871L10.2902 3.18866L10.1924 3.93225ZM10.8379 4.77405L11.5814 4.87215L11.5815 4.87167L10.8379 4.77405ZM9.99609 5.41956L10.094 4.67597L10.0938 4.67595L9.99609 5.41956ZM9.55664 5.44592L9.30025 4.74111L9.29966 4.74132L9.55664 5.44592ZM9.1377 5.74768L8.60643 5.21828L8.60641 5.21831L9.1377 5.74768ZM8.78906 6.67249L8.0459 6.57148C8.00545 6.86908 8.14644 7.16211 8.40422 7.31622C8.66201 7.47033 8.98687 7.4558 9.22986 7.27928L8.78906 6.67249ZM8.79492 6.66956L9.23575 7.27633L8.79492 6.66956ZM9.43359 6.38147L9.3884 5.63283L9.38825 5.63284L9.43359 6.38147ZM11.7061 8.20276L11.0052 8.46972C11.13 8.79747 11.4653 8.99494 11.8125 8.94517C12.1597 8.89539 12.426 8.61167 12.4537 8.26204L11.7061 8.20276ZM21.4316 4.99182V4.24182H21.4315L21.4316 4.99182ZM24.833 8.9928H25.583V8.99275L24.833 8.9928ZM24.6377 10.3336V11.0836C24.9684 11.0836 25.26 10.867 25.3557 10.5505L24.6377 10.3336ZM18.5 10.3336V11.0836V10.3336ZM18.0312 8.9928L18.7812 8.9934V8.99284L18.0312 8.9928ZM24.167 12.3336V13.0836C24.7391 13.0836 24.9326 13.0863 25.0817 13.1113L25.2061 12.3717L25.3304 11.6321C25.0267 11.581 24.6784 11.5836 24.167 11.5836V12.3336ZM25.2061 12.3717L25.0817 13.1113C25.9223 13.2527 26.5809 13.9113 26.7223 14.7519L27.4619 14.6276L28.2015 14.5032C27.9542 13.0321 26.8015 11.8795 25.3304 11.6321L25.2061 12.3717ZM27.4619 14.6276L26.7223 14.7518C26.7473 14.901 26.75 15.0947 26.75 15.6666H27.5H28.25C28.25 15.1551 28.2526 14.8069 28.2015 14.5033L27.4619 14.6276ZM27.5 15.6666L26.7513 15.6226C26.4966 19.9519 23.5079 22.9445 19.5058 23.9153L19.6826 24.6442L19.8594 25.373C24.3995 24.2717 27.9494 20.7983 28.2487 15.7107L27.5 15.6666ZM19.6826 24.6442L19 24.955C19.0535 25.0724 19.083 25.1999 19.083 25.3336H19.833H20.583C20.583 24.9752 20.5032 24.6364 20.3652 24.3334L19.6826 24.6442ZM19.833 25.3336L19.083 25.3335C19.0829 25.8396 18.673 26.2495 18.1668 26.2496L18.167 26.9996L18.1671 27.7496C19.5015 27.7494 20.5828 26.6681 20.583 25.3337L19.833 25.3336ZM18.167 26.9996V26.2496H10.833V26.9996V27.7496H18.167V26.9996ZM10.833 26.9996L10.8332 26.2496C10.327 26.2495 9.91708 25.8396 9.91699 25.3335L9.16699 25.3336L8.41699 25.3337C8.41723 26.6681 9.49855 27.7494 10.8329 27.7496L10.833 26.9996ZM9.16699 25.3336H9.91699C9.91699 25.1992 9.94638 25.0717 9.99922 24.9554L9.31641 24.6451L8.63359 24.3349C8.49566 24.6384 8.41699 24.9769 8.41699 25.3336H9.16699ZM9.31641 24.6451L9.49244 23.9161C5.46892 22.9446 2.4524 19.9499 2.24917 15.6314L1.5 15.6666L0.750829 15.7019C0.990886 20.8031 4.59018 24.2755 9.14037 25.3742L9.31641 24.6451ZM1.5 15.6666H2.25C2.25 15.0946 2.25266 14.901 2.27772 14.7518L1.53809 14.6276L0.798451 14.5033C0.747449 14.8069 0.75 15.1551 0.75 15.6666H1.5ZM1.53809 14.6276L2.2777 14.7519C2.41906 13.9113 3.0777 13.2527 3.91834 13.1113L3.79395 12.3717L3.66955 11.6321C2.1985 11.8795 1.04585 13.0321 0.79847 14.5032L1.53809 14.6276ZM3.79395 12.3717L3.91832 13.1113C4.06739 13.0863 4.26089 13.0836 4.83301 13.0836V12.3336V11.5836C4.32164 11.5836 3.97326 11.581 3.66957 11.6321L3.79395 12.3717ZM4.83301 12.3336V13.0836H24.167V12.3336V11.5836H4.83301V12.3336ZM11.9893 6.35901L12.7205 6.52555C13.0928 4.89094 13.7394 3.55556 14.4437 2.71057C15.1796 1.82752 15.7926 1.66821 16.17 1.7872L16.3955 1.0719L16.621 0.356602C15.3487 -0.0444883 14.1503 0.719718 13.2914 1.75022C12.4008 2.81879 11.6692 4.387 11.258 6.19247L11.9893 6.35901ZM16.3955 1.0719L16.1698 1.78713C16.5887 1.91933 17.0802 2.48123 17.3513 3.68664L18.083 3.52209L18.8147 3.35755C18.5117 2.00991 17.8345 0.739578 16.6212 0.356671L16.3955 1.0719ZM18.083 3.52209V2.77209H16.3818V3.52209V4.27209H18.083V3.52209ZM16.3818 3.52209V2.77209C15.4153 2.77209 14.6318 3.5556 14.6318 4.52209H15.3818H16.1318C16.1318 4.38402 16.2438 4.27209 16.3818 4.27209V3.52209ZM15.3818 4.52209L14.6318 4.52224C14.632 5.48838 15.4153 6.27209 16.3818 6.27209V5.52209V4.77209C16.244 4.77209 16.1319 4.66019 16.1318 4.52195L15.3818 4.52209ZM16.3818 5.52209V6.27209H18.2842V5.52209V4.77209H16.3818V5.52209ZM18.2842 5.52209L17.5342 5.5194C17.5327 5.93506 17.5058 6.37034 17.4517 6.81783L18.1963 6.90784L18.9409 6.99784C19.0017 6.49452 19.0325 6.00091 19.0342 5.52479L18.2842 5.52209ZM18.1963 6.90784V6.15784H16.0791V6.90784V7.65784H18.1963V6.90784ZM16.0791 6.90784L16.0789 6.15784C15.1129 6.15815 14.3291 6.94121 14.3291 7.90784H15.0791H15.8291C15.8291 7.77012 15.941 7.65788 16.0793 7.65784L16.0791 6.90784ZM15.0791 7.90784L14.3291 7.90802C14.3293 8.87422 15.1128 9.65752 16.0789 9.65784L16.0791 8.90784L16.0793 8.15784C15.9413 8.15779 15.8291 8.04558 15.8291 7.90766L15.0791 7.90784ZM16.0791 8.90784V9.65784H17.8174V8.90784V8.15784H16.0791V8.90784ZM17.8174 8.90784L17.0888 8.72988C16.9867 9.14776 16.8514 9.49479 16.5443 9.81177L17.083 10.3336L17.6217 10.8555C18.1917 10.2671 18.4137 9.62736 18.546 9.0858L17.8174 8.90784ZM17.083 10.3336V9.58362H4.3125V10.3336V11.0836H17.083V10.3336ZM4.3125 10.3336L4.53877 9.61857C4.66867 9.65967 4.77442 9.73278 4.84658 9.8217C4.91434 9.90518 4.92521 9.96874 4.92316 9.95855C4.91527 9.91942 4.88806 9.67642 5.04366 9.02952L4.31445 8.85413L3.58525 8.67873C3.41145 9.40129 3.3806 9.8972 3.45275 10.255C3.53476 10.6618 3.77059 10.9488 4.08623 11.0487L4.3125 10.3336ZM4.31445 8.85413L5.04365 9.02953C5.1913 8.41572 5.43452 7.90576 5.73547 7.57231C6.01943 7.25769 6.34319 7.1059 6.74274 7.1301L6.78809 6.38147L6.83343 5.63284C5.90728 5.57674 5.16032 5.97078 4.62193 6.56731C4.10054 7.14502 3.76979 7.91154 3.58525 8.67872L4.31445 8.85413ZM6.78809 6.38147L6.74239 7.13008C6.75027 7.13056 6.7583 7.13188 6.7734 7.13814C6.7921 7.14589 6.82166 7.16125 6.87245 7.19553L7.29199 6.57385L7.71153 5.95217C7.51748 5.82122 7.22794 5.65692 6.83378 5.63286L6.78809 6.38147ZM7.29199 6.57385L8.03696 6.6606C8.0386 6.64651 8.03977 6.63418 8.04058 6.62507C8.04134 6.61657 8.04204 6.60794 8.04233 6.60435C8.04273 6.59942 8.04283 6.59839 8.04283 6.5984C8.0428 6.59869 8.04248 6.60209 8.0418 6.60744L7.29785 6.51233L6.55391 6.41722C6.55018 6.44639 6.54811 6.47241 6.54734 6.48184C6.54679 6.48855 6.54666 6.49021 6.5465 6.49198C6.5464 6.49313 6.54657 6.49103 6.54703 6.4871L7.29199 6.57385ZM7.29785 6.51233L8.04179 6.6075C8.1075 6.0938 8.25979 5.5664 8.60648 5.21846L8.0752 4.68909L7.54391 4.15971C6.83938 4.86679 6.6319 5.80756 6.55391 6.41716L7.29785 6.51233ZM8.0752 4.68909L8.60647 5.21847C8.8405 4.9836 9.06181 4.82814 9.2998 4.7414L9.04297 4.03674L8.78614 3.33209C8.27684 3.51772 7.87551 3.82692 7.54392 4.15971L8.0752 4.68909ZM9.04297 4.03674L9.29969 4.74144C9.53799 4.65462 9.79355 4.63624 10.0945 4.67584L10.1924 3.93225L10.2902 3.18866C9.81429 3.12604 9.30516 3.14301 8.78625 3.33205L9.04297 4.03674ZM10.1924 3.93225L10.0942 4.67579L10.0943 4.67643L10.8379 4.77405L11.5815 4.87167C11.6892 4.05131 11.112 3.29722 10.2906 3.18871L10.1924 3.93225ZM10.8379 4.77405L10.0943 4.67594L10.094 4.67597L9.99609 5.41956L9.89818 6.16314C10.7191 6.27123 11.4731 5.6936 11.5814 4.87215L10.8379 4.77405ZM9.99609 5.41956L10.0938 4.67595C9.79208 4.63629 9.53741 4.65484 9.30025 4.74111L9.55664 5.44592L9.81303 6.15074C9.8074 6.15279 9.80137 6.15454 9.79594 6.15572C9.7907 6.15686 9.78914 6.15679 9.7925 6.15652C9.79998 6.15592 9.83149 6.15437 9.89836 6.16316L9.99609 5.41956ZM9.55664 5.44592L9.29966 4.74132C9.06189 4.82804 8.84045 4.98344 8.60643 5.21828L9.1377 5.74768L9.66896 6.27708C9.80492 6.14064 9.84647 6.13854 9.81362 6.15052L9.55664 5.44592ZM9.1377 5.74768L8.60641 5.21831C8.26691 5.55903 8.11385 6.07149 8.0459 6.57148L8.78906 6.67249L9.53223 6.77349C9.55721 6.58968 9.59198 6.4583 9.62541 6.37085C9.66016 6.27996 9.68344 6.26254 9.66898 6.27705L9.1377 5.74768ZM8.78906 6.67249L9.22986 7.27928C9.20373 7.29826 9.17999 7.31291 9.16085 7.3238C9.14171 7.3347 9.12518 7.34298 9.11308 7.34875C9.10101 7.3545 9.09121 7.35876 9.08567 7.36112C9.08279 7.36236 9.08048 7.36332 9.07915 7.36387C9.07794 7.36437 9.07692 7.36479 9.07725 7.36465C9.07727 7.36465 9.07762 7.3645 9.07802 7.36434C9.07845 7.36416 9.07912 7.36388 9.07994 7.36354C9.08153 7.36288 9.0841 7.36181 9.08725 7.36047C9.09331 7.35788 9.10362 7.35339 9.1162 7.3474C9.1288 7.34139 9.14581 7.33287 9.16542 7.3217C9.18502 7.31054 9.20921 7.29561 9.23575 7.27633L8.79492 6.66956L8.35409 6.06278C8.38023 6.0438 8.40397 6.02915 8.42311 6.01825C8.44225 6.00735 8.45878 5.99907 8.47089 5.9933C8.48296 5.98755 8.49276 5.98329 8.49831 5.98092C8.50119 5.97969 8.5035 5.97872 8.50483 5.97817C8.50604 5.97767 8.50706 5.97725 8.50673 5.97739C8.50672 5.97739 8.50636 5.97754 8.50597 5.9777C8.50553 5.97788 8.50486 5.97816 8.50405 5.9785C8.50246 5.97916 8.49989 5.98023 8.49674 5.98157C8.49068 5.98416 8.48038 5.98864 8.4678 5.99463C8.4552 6.00064 8.43819 6.00916 8.41859 6.02032C8.39899 6.03149 8.37481 6.04641 8.34826 6.06569L8.78906 6.67249ZM8.79492 6.66956L9.23575 7.27633C9.3367 7.20298 9.38466 7.17004 9.42807 7.14777C9.4599 7.13144 9.47184 7.13053 9.47894 7.1301L9.43359 6.38147L9.38825 5.63284C8.87758 5.66377 8.52365 5.9396 8.35409 6.06278L8.79492 6.66956ZM9.43359 6.38147L9.47879 7.13011C10.1025 7.09246 10.6427 7.518 11.0052 8.46972L11.7061 8.20276L12.4069 7.93579C11.9492 6.73404 10.9851 5.53644 9.3884 5.63283L9.43359 6.38147ZM11.7061 8.20276L12.4537 8.26204C12.4982 7.70132 12.5858 7.11732 12.7205 6.52554L11.9893 6.35901L11.258 6.19248C11.1072 6.85478 11.0086 7.51046 10.9584 8.14348L11.7061 8.20276ZM21.4316 4.99182V5.74182C22.7863 5.74182 24.0829 7.07827 24.083 8.99284L24.833 8.9928L25.583 8.99275C25.5829 6.48739 23.8338 4.24182 21.4316 4.24182V4.99182ZM24.833 8.9928H24.083C24.083 9.38982 24.0249 9.76847 23.9197 10.1168L24.6377 10.3336L25.3557 10.5505C25.5036 10.0608 25.583 9.53594 25.583 8.9928H24.833ZM24.6377 10.3336V9.58362H18.5V10.3336V11.0836H24.6377V10.3336ZM18.5 10.3336V9.58362C18.5145 9.58362 18.6196 9.59068 18.7243 9.68287C18.8147 9.76247 18.8252 9.83732 18.8156 9.8002C18.8061 9.76328 18.7941 9.68483 18.7875 9.53466C18.7811 9.38846 18.7811 9.2146 18.7812 8.9934L18.0312 8.9928L17.2812 8.99219C17.2809 9.37862 17.2747 9.83241 17.3632 10.1752C17.4123 10.3651 17.5107 10.6129 17.7331 10.8087C17.9698 11.0171 18.2509 11.0836 18.5 11.0836V10.3336ZM18.0312 8.9928L18.7812 8.99284C18.7814 7.07826 20.0774 5.74202 21.4317 5.74182L21.4316 4.99182L21.4315 4.24182C19.0295 4.24217 17.2814 6.48774 17.2812 8.99275L18.0312 8.9928Z" fill="#FABC1C"/>
</svg>
