<svg xmlns="http://www.w3.org/2000/svg" width="487.381" height="492.225" viewBox="0 0 487.381 492.225">
  <g id="Group_3500" data-name="Group 3500" transform="translate(70.553 -2094)">
    <g id="Group_3499" data-name="Group 3499">
      <path id="Path_285" data-name="Path 285" d="M55.731,178.391Zm-11.518,3.977v63.776a201.749,201.749,0,0,0,58.333,142.43,197.96,197.96,0,0,0,282.175,0c78.016-78.654,78.016-206.206,0-285A198.23,198.23,0,0,0,237.871,44.655H176.626V9.452a242.208,242.208,0,0,1,239.445,62.6c95.08,96.181,95.08,252.007,0,348.039a242,242,0,0,1-344.737,0C6.591,354.7-14.12,261.608,9.359,178.391H40.277a3.941,3.941,0,0,1,3.936,3.977" transform="translate(416.828 2586.225) rotate(180)" fill="#fff" fill-rule="evenodd"/>
      <path id="Path_286" data-name="Path 286" d="M105.436,32.7A154.14,154.14,0,0,1,282.324,63.337c60.664,61.271,60.664,160.544,0,221.814a154.166,154.166,0,0,1-219.618,0C14.878,236.845,4.671,164.817,32.374,106.494H61.25V174.54h.144a111.753,111.753,0,0,0,32.523,79.1,110.3,110.3,0,0,0,157.2,0,112.988,112.988,0,0,0,0-158.779,110.264,110.264,0,0,0-78.309-32.992H109.228a3.984,3.984,0,0,1-3.791-3.833Z" transform="translate(345.637 2514.322) rotate(180)" fill="#fff" fill-rule="evenodd"/>
      <path id="Path_287" data-name="Path 287" d="M53.935,54.533a66.632,66.632,0,0,1,24.5-15.758V102.4a23.714,23.714,0,0,0,6.708,16.349,22.816,22.816,0,0,0,32.374,0,23.125,23.125,0,0,0-16.185-39.474H93.594A3.941,3.941,0,0,1,89.658,75.3V38.626a3.907,3.907,0,0,1,1.61-3.241,67.044,67.044,0,0,1,57.448,19.148c26.108,26.365,26.108,69.224,0,95.739a66.685,66.685,0,0,1-94.782,0c-26.108-26.515-26.108-69.373,0-95.739" transform="translate(274.447 2442.478) rotate(180)" fill="#fff" fill-rule="evenodd"/>
      <path id="Path_292" data-name="Path 292" d="M34.333,44.633V3.982A4.035,4.035,0,0,1,38.269.005h63.143V44.633Z" transform="translate(274.533 2586.203) rotate(180)" fill="#fff" fill-rule="evenodd"/>
    </g>
    <path id="Path_294" data-name="Path 294" d="M78.519.005H38.269a4.035,4.035,0,0,0-3.936,3.977V74.091a4.119,4.119,0,0,0,3.936,3.833H74.583a3.941,3.941,0,0,0,3.936-3.977V.005Z" transform="translate(274.533 2586.203) rotate(180)" fill="#fff" fill-rule="evenodd"/>
  </g>
</svg>
