<svg xmlns="http://www.w3.org/2000/svg" width="487.381" height="492.225" viewBox="0 0 487.381 492.225">
  <g id="Group_3499" data-name="Group 3499" transform="translate(-1509.31 -1972.887)">
    <path id="Path_285" data-name="Path 285" d="M55.731,178.391Zm-11.518,3.977v63.776a201.749,201.749,0,0,0,58.333,142.43,197.96,197.96,0,0,0,282.175,0c78.016-78.654,78.016-206.206,0-285A198.23,198.23,0,0,0,237.871,44.655H176.626V9.452a242.208,242.208,0,0,1,239.445,62.6c95.08,96.181,95.08,252.007,0,348.039a242,242,0,0,1-344.737,0C6.591,354.7-14.12,261.608,9.359,178.391H40.277a3.941,3.941,0,0,1,3.936,3.977" transform="translate(1509.311 1972.888)" fill="#fff" fill-rule="evenodd"/>
    <path id="Path_286" data-name="Path 286" d="M105.436,32.7A154.14,154.14,0,0,1,282.324,63.337c60.664,61.271,60.664,160.544,0,221.814a154.166,154.166,0,0,1-219.618,0C14.878,236.845,4.671,164.817,32.374,106.494H61.25V174.54h.144a111.753,111.753,0,0,0,32.523,79.1,110.3,110.3,0,0,0,157.2,0,112.988,112.988,0,0,0,0-158.779,110.264,110.264,0,0,0-78.309-32.992H109.228a3.984,3.984,0,0,1-3.791-3.833Z" transform="translate(1580.502 2044.79)" fill="#fff" fill-rule="evenodd"/>
    <path id="Path_287" data-name="Path 287" d="M53.935,54.533a66.632,66.632,0,0,1,24.5-15.758V102.4a23.714,23.714,0,0,0,6.708,16.349,22.816,22.816,0,0,0,32.374,0,23.125,23.125,0,0,0-16.185-39.474H93.594A3.941,3.941,0,0,1,89.658,75.3V38.626a3.907,3.907,0,0,1,1.61-3.241,67.044,67.044,0,0,1,57.448,19.148c26.108,26.365,26.108,69.224,0,95.739a66.685,66.685,0,0,1-94.782,0c-26.108-26.515-26.108-69.373,0-95.739" transform="translate(1651.691 2116.635)" fill="#fff" fill-rule="evenodd"/>
    <path id="Path_288" data-name="Path 288" d="M56.041,34.677h-7A4.035,4.035,0,0,0,45.1,38.654v4.27H56.041Z" transform="translate(1696.244 2116.607)" fill="#fff" fill-rule="evenodd"/>
    <path id="Path_289" data-name="Path 289" d="M34.333,37.689V129.3H78.519V31.5a4.082,4.082,0,0,0-3.936-3.236H38.269a3.938,3.938,0,0,0-3.936,3.977Z" transform="translate(1651.605 2090.028)" fill="#fff" fill-rule="evenodd"/>
    <path id="Path_290" data-name="Path 290" d="M17.183,79.305V38.654a3.938,3.938,0,0,1,3.936-3.977h69.27a4.032,4.032,0,0,1,3.936,3.977V75.329a4.039,4.039,0,0,1-3.936,3.977H17.183Z" transform="translate(1580.527 2116.607)" fill="#fff" fill-rule="evenodd"/>
    <path id="Path_291" data-name="Path 291" d="M38.269,17.355h63.143V61.834H38.124a3.979,3.979,0,0,1-3.791-3.827V21.182a4,4,0,0,1,3.936-3.827" transform="translate(1651.605 2044.816)" fill="#fff" fill-rule="evenodd"/>
    <path id="Path_292" data-name="Path 292" d="M34.333,44.633V3.982A4.035,4.035,0,0,1,38.269.005h63.143V44.633Z" transform="translate(1651.605 1972.91)" fill="#fff" fill-rule="evenodd"/>
    <path id="Path_293" data-name="Path 293" d="M44.191,102.429H.005V38.653a3.941,3.941,0,0,1,3.936-3.977H40.255a3.941,3.941,0,0,1,3.936,3.977v63.776Z" transform="translate(1509.334 2116.603)" fill="#fff" fill-rule="evenodd"/>
    <path id="Path_294" data-name="Path 294" d="M78.519.005H38.269a4.035,4.035,0,0,0-3.936,3.977V74.091a4.119,4.119,0,0,0,3.936,3.833H74.583a3.941,3.941,0,0,0,3.936-3.977V.005Z" transform="translate(1651.605 1972.91)" fill="#fff" fill-rule="evenodd"/>
    <path id="Path_295" data-name="Path 295" d="M17.183,38.653v64.661H61.369V34.676H21.119a3.941,3.941,0,0,0-3.936,3.977" transform="translate(1580.527 2116.603)" fill="#fff" fill-rule="evenodd"/>
    <path id="Path_296" data-name="Path 296" d="M12.336,26.452c15.747-1.178,31.644-2.356,47.4-3.534.581-.149.437-.736-.149-.736l-47.247-3.39v-.736a5.568,5.568,0,0,1,5.541-5.6h58.04a5.448,5.448,0,0,1,5.4,5.6V76.678a5.321,5.321,0,0,1-5.4,5.448H17.877a5.442,5.442,0,0,1-5.541-5.448Z" transform="translate(1560.439 2024.525)" fill="#fff" fill-rule="evenodd"/>
  </g>
</svg>
