<svg width="41" height="40" viewBox="0 0 41 40" fill="none" xmlns="http://www.w3.org/2000/svg">
<path d="M4.25 19.9984C4.25 18.7372 4.38796 17.5096 4.64923 16.3301C6.38129 19.1108 8.80284 21.4069 11.6717 22.967C11.994 25.4568 12.6942 28.0816 13.6959 30.503C14.5478 32.5622 15.6441 34.5372 16.9626 36.1722C9.70176 34.5281 4.25 27.9266 4.25 19.9984Z" fill="#4FC7B0"/>
<path d="M11.4712 19.918C8.99375 18.2273 6.99598 15.8592 5.7344 13.0689C7.83188 8.43026 11.9695 4.95528 16.9626 3.82468C15.6441 5.45967 14.5478 7.4346 13.6959 9.49386C12.2954 12.8793 11.4844 16.6621 11.4712 19.918Z" fill="#4FC7B0"/>
<path d="M16.006 10.4496C17.1675 7.64212 18.7277 5.2388 20.4979 3.74951C22.2681 5.2388 23.8283 7.64212 24.9898 10.4496C26.2938 13.6015 27.0248 17.0948 27.0248 19.9984C27.0248 20.4329 27.0084 20.8806 26.9762 21.3384C24.9901 22.2197 22.7989 22.7079 20.4979 22.7079C18.1969 22.7079 16.0057 22.2197 14.0196 21.3384C13.9874 20.8806 13.9711 20.4329 13.9711 19.9984C13.9711 17.0948 14.702 13.6015 16.006 10.4496Z" fill="#4FC7B0"/>
<path d="M20.4979 25.2079C22.6347 25.2079 24.6867 24.8446 26.5981 24.176C26.254 25.9661 25.7091 27.8086 24.9898 29.5473C23.8283 32.3547 22.2681 34.758 20.4979 36.2473C18.7277 34.758 17.1675 32.3547 16.006 29.5473C15.2867 27.8086 14.7418 25.9661 14.3977 24.1759C16.3092 24.8446 18.3612 25.2079 20.4979 25.2079Z" fill="#4FC7B0"/>
<path d="M27.2999 30.503C26.448 32.5622 25.3517 34.5372 24.0332 36.1722C31.2941 34.5281 36.7458 27.9266 36.7458 19.9984C36.7458 18.7372 36.6078 17.5096 36.3466 16.3302C34.6145 19.1108 32.193 21.407 29.3241 22.967C29.0018 25.4568 28.3017 28.0816 27.2999 30.503Z" fill="#4FC7B0"/>
<path d="M29.5246 19.918C32.0021 18.2273 33.9999 15.8592 35.2614 13.0689C33.164 8.43028 29.0263 4.95528 24.0332 3.82468C25.3517 5.45967 26.448 7.4346 27.2999 9.49386C28.7005 12.8793 29.5114 16.6621 29.5246 19.918Z" fill="#4FC7B0"/>
</svg>
