<svg width="20" height="20" viewBox="0 0 20 20" fill="none" xmlns="http://www.w3.org/2000/svg">
<path d="M9.99992 1.875C14.4557 1.875 18.2045 5.49356 17.2792 10.1221C16.8216 12.4104 15.025 14.5049 13.4472 15.9775C12.6449 16.7263 11.871 17.34 11.2978 17.7666C10.5336 18.3353 9.46619 18.3353 8.70206 17.7666C8.12892 17.34 7.35482 16.7262 6.55265 15.9775C4.97503 14.505 3.17848 12.4111 2.72062 10.123C1.79473 5.49434 5.54414 1.87508 9.99992 1.875ZM9.99992 6.375C8.3891 6.37502 7.08292 7.68117 7.08292 9.29199C7.08309 10.9027 8.38921 12.208 9.99992 12.208C11.6106 12.208 12.9167 10.9027 12.9169 9.29199C12.9169 7.68116 11.6107 6.375 9.99992 6.375Z" fill="#FFF4CF"/>
</svg>
