<svg width="20" height="20" viewBox="0 0 20 20" fill="none" xmlns="http://www.w3.org/2000/svg">
<path d="M12.0829 2.70801C13.2834 2.70801 13.8841 2.7085 14.3817 2.81641C16.201 3.21103 17.6217 4.63196 18.0165 6.45117C18.1244 6.94873 18.1249 7.54966 18.1249 8.75C18.1249 9.94997 18.1243 10.5504 18.0165 11.0479C17.6219 12.8673 16.2012 14.289 14.3817 14.6836C13.8841 14.7915 13.2834 14.791 12.0829 14.791H10.1483L6.8446 16.4424C5.75307 16.9882 5.2072 17.261 4.86804 17.085C4.76317 17.0304 4.67214 16.9516 4.60339 16.8555C4.38181 16.5445 4.57517 15.9655 4.96082 14.8086L5.05554 14.5215C3.51035 13.9806 2.33612 12.6747 1.98328 11.0479C1.87547 10.5504 1.87488 9.94997 1.87488 8.75C1.87488 7.54966 1.87537 6.94873 1.98328 6.45117C2.37802 4.63196 3.79878 3.21103 5.61804 2.81641C6.11563 2.7085 6.71636 2.70801 7.91687 2.70801H12.0829ZM6.66687 9.25C6.25266 9.25 5.91687 9.58579 5.91687 10C5.91687 10.4142 6.25266 10.75 6.66687 10.75H13.3339L13.41 10.7461C13.7882 10.7076 14.0839 10.3883 14.0839 10C14.0839 9.61172 13.7882 9.29238 13.41 9.25391L13.3339 9.25H6.66687ZM6.66687 6.75C6.25266 6.75 5.91687 7.08579 5.91687 7.5C5.91687 7.91421 6.25266 8.25 6.66687 8.25H10.8339L10.91 8.24609C11.2882 8.20762 11.5839 7.88828 11.5839 7.5C11.5839 7.11172 11.2882 6.79238 10.91 6.75391L10.8339 6.75H6.66687Z" fill="#FFF4CF"/>
</svg>
