<svg width="33" height="32" viewBox="0 0 33 32" fill="none" xmlns="http://www.w3.org/2000/svg">
<path d="M13.8333 23.6667V23.6667C13.3495 24.957 14.3033 26.3333 15.6813 26.3333H24.5529C26.3603 26.3333 27.2641 26.3333 27.8581 25.9767C28.4709 25.6087 28.897 24.996 29.0285 24.2934C29.156 23.6124 28.8413 22.7652 28.212 21.0708V21.0708C27.6897 19.6646 27.4286 18.9615 26.9865 18.4332C26.5278 17.8849 25.9304 17.4695 25.2567 17.2304C24.6075 17 23.8575 17 22.3574 17H19.9767C19.4875 17 19.2429 17 19.0011 17.0295C18.9182 17.0397 18.8356 17.0524 18.7534 17.0677C18.514 17.1123 18.2808 17.186 17.8143 17.3333V17.3333" stroke="#4FC7B0" stroke-width="1.5" stroke-linejoin="round"/>
<path d="M17.9661 11C17.9661 8.97498 19.6078 7.33335 21.6328 7.33335C23.6579 7.33335 25.2995 8.97498 25.2995 11C25.2995 13.0251 23.6579 14.6667 21.6328 14.6667C19.6078 14.6667 17.9661 13.0251 17.9661 11Z" fill="#4FC7B0"/>
<path d="M7.96666 8.33335C7.96666 6.30831 9.60828 4.66669 11.6333 4.66669C13.6584 4.66669 15.3 6.30831 15.3 8.33335C15.3 10.3584 13.6584 12 11.6333 12C9.60828 12 7.96666 10.3584 7.96666 8.33335Z" fill="#4FC7B0"/>
<path d="M19.2931 18.9593C18.8796 17.0043 18.6729 16.0268 18.1669 15.2888C17.6739 14.5697 16.9826 14.0093 16.1771 13.6757C15.3503 13.3334 14.3512 13.3334 12.353 13.3334H10.8145C8.90422 13.3334 7.94909 13.3334 7.13935 13.6599C6.45986 13.9338 5.85754 14.3696 5.38472 14.9292C4.82126 15.5962 4.52243 16.5033 3.92476 18.3177C3.20937 20.4894 2.85167 21.5753 3.08082 22.4374C3.27125 23.1538 3.72018 23.7743 4.34104 24.1793C5.08814 24.6667 6.23139 24.6667 8.51791 24.6667H14.6664C16.6125 24.6667 17.5856 24.6667 18.2709 24.2809C18.9356 23.9067 19.4328 23.2934 19.6614 22.5656C19.897 21.8154 19.6957 20.8633 19.2931 18.9593Z" fill="#4FC7B0"/>
</svg>
