<svg width="20" height="20" viewBox="0 0 20 20" fill="none" xmlns="http://www.w3.org/2000/svg">
<path d="M7.92077 2.95097C6.53769 1.56843 4.29536 1.56843 2.91227 2.95097C2.13546 3.72748 1.79517 4.77573 1.89053 5.78817C1.91604 8.50697 3.33641 11.6218 5.85855 14.143C8.38072 16.6642 11.4967 18.0839 14.2163 18.1093C15.2289 18.2047 16.2774 17.8646 17.0542 17.0881C18.4375 15.7054 18.4375 13.4636 17.0542 12.0809C15.6711 10.6983 13.4288 10.6983 12.0457 12.0809C11.719 12.4075 11.4692 12.7827 11.2966 13.1833C10.4347 12.6481 9.59168 11.984 8.80466 11.1973C8.01779 10.4108 7.35358 9.56824 6.81827 8.70685C7.21886 8.53443 7.59408 8.28477 7.92077 7.95821C9.304 6.57553 9.304 4.33365 7.92077 2.95097Z" fill="#FFF4CF"/>
</svg>
