<svg width="200" height="52" viewBox="0 0 200 52" fill="none" xmlns="http://www.w3.org/2000/svg">
<path d="M53.0333 25.2827V49.6449H45.7014V41.8865C42.2781 45.9313 37.7035 48.8292 32.5912 50.1917C27.4789 51.5542 22.0735 51.316 17.1 49.5091C12.1265 47.7022 7.82289 44.4129 4.7664 40.0827C1.7099 35.7524 0.0467369 30.5882 0 25.2827H11.1137C11.1665 28.5306 12.2781 31.6718 14.2788 34.2262C16.2794 36.7806 19.0589 38.6077 22.1925 39.4281C25.3261 40.2485 28.6412 40.0171 31.6313 38.7693C34.6214 37.5216 37.1219 35.3261 38.7506 32.5184H30.0091V25.2827H53.0299H53.0333Z" fill="white"/>
<path d="M48.8562 12.8261H48.8485L39.0444 18.0656C38.1042 16.2997 36.8204 14.7411 35.2688 13.4818C33.7173 12.2226 31.9297 11.2884 30.0117 10.7345L33.0594 0.0112305C36.413 0.977992 39.539 2.60994 42.2525 4.81041C44.9659 7.01088 47.2114 9.73514 48.8562 12.8218" fill="#FABC1C"/>
<path d="M21.891 10.7259C19.9687 11.2777 18.1767 12.2119 16.6218 13.4726C15.0668 14.7334 13.7806 16.295 12.8396 18.0646L3.03889 12.8302H3.03125C4.67814 9.73652 6.9283 7.00652 9.64798 4.80244C12.3677 2.59837 15.5014 0.965195 18.8628 0L21.8876 10.7259H21.891Z" fill="#FABC1C"/>
<path d="M76.2343 23.8736C75.0623 23.8994 73.8969 23.6905 72.8064 23.259C71.8934 22.8923 71.105 22.2696 70.5353 21.4654C69.9707 20.6172 69.6627 19.6233 69.6484 18.6035H72.6656C72.6907 19.139 72.8808 19.6535 73.2096 20.0762C73.5427 20.4765 73.9759 20.7809 74.4648 20.9581C75.0188 21.1629 75.6057 21.2639 76.1961 21.256C76.7962 21.2651 77.3926 21.1602 77.9538 20.947C78.4177 20.7732 78.8276 20.4795 79.142 20.0957C79.4292 19.7333 79.5814 19.2817 79.5722 18.8188C79.5862 18.4204 79.4487 18.0316 79.1878 17.7309C78.8886 17.4165 78.5253 17.1706 78.1227 17.0099C77.6042 16.7916 77.0685 16.6167 76.5212 16.4872L74.6048 15.9859C73.3907 15.7204 72.2605 15.1594 71.3136 14.3523C70.913 13.9807 70.5978 13.526 70.3902 13.0198C70.1825 12.5137 70.0872 11.9682 70.111 11.4214C70.0917 10.4832 70.3745 9.56382 70.9172 8.79952C71.483 8.02888 72.2453 7.42522 73.1238 7.05189C74.1259 6.62158 75.2072 6.40837 76.2971 6.42621C77.3848 6.40527 78.4643 6.61863 79.4628 7.05189C80.3166 7.42462 81.0542 8.022 81.5972 8.78079C82.1141 9.5262 82.395 10.4105 82.4035 11.3184H79.4424C79.4187 10.9826 79.3202 10.6564 79.1543 10.3639C78.9883 10.0713 78.7591 9.81976 78.4834 9.6278C77.8232 9.20356 77.048 8.99535 76.2649 9.03191C75.7049 9.01814 75.1477 9.11534 74.6252 9.31794C74.2092 9.47678 73.8456 9.74889 73.5754 10.1036C73.3332 10.4326 73.205 10.832 73.2104 11.2409C73.1935 11.6675 73.3461 12.0833 73.6348 12.3969C73.9425 12.7118 74.3133 12.9576 74.7228 13.118C75.1642 13.3012 75.6179 13.4528 76.0807 13.5717L77.6593 13.9684C78.2882 14.1182 78.903 14.3224 79.4967 14.5787C80.0695 14.8226 80.6059 15.1449 81.0906 15.5364C81.5878 15.9306 81.9859 16.4364 82.2528 17.0129C82.5198 17.5895 82.6481 18.2209 82.6275 18.8563C82.6434 19.7839 82.3769 20.6944 81.8637 21.4663C81.3178 22.2552 80.5571 22.8699 79.6724 23.2369C78.5789 23.688 77.4036 23.9051 76.2216 23.8745" fill="white"/>
<path d="M84.4629 23.6106V10.8834H87.3128V13.0584H87.4724C87.7156 12.3599 88.1773 11.7589 88.7887 11.3448C89.4359 10.9208 90.1962 10.7039 90.969 10.7225C91.7428 10.7001 92.5045 10.9187 93.1493 11.3482C93.7377 11.7631 94.1725 12.3618 94.3858 13.0507H94.5225C94.8081 12.3481 95.3093 11.7548 95.9534 11.3567C96.6695 10.9187 97.4964 10.6973 98.3348 10.7191C98.8605 10.699 99.3847 10.7867 99.8754 10.977C100.366 11.1673 100.813 11.4561 101.188 11.8258C101.579 12.2641 101.878 12.7768 102.068 13.3334C102.257 13.89 102.333 14.479 102.291 15.0657V23.6106H99.2973V15.5279C99.3243 15.2116 99.2818 14.8932 99.1727 14.5952C99.0636 14.2972 98.8905 14.0268 98.6658 13.8033C98.241 13.4316 97.6923 13.234 97.1288 13.2499C96.8169 13.2321 96.5049 13.2833 96.2149 13.4C95.925 13.5167 95.6641 13.6959 95.451 13.925C95.0397 14.4072 94.825 15.0274 94.8501 15.6616V23.6072H91.9017V15.4096C91.916 15.1215 91.8721 14.8334 91.7728 14.5627C91.6735 14.2919 91.5208 14.0441 91.3238 13.8339C91.1217 13.6361 90.8813 13.482 90.6176 13.381C90.3538 13.28 90.0722 13.2342 89.7902 13.2465C89.374 13.243 88.9652 13.3569 88.6105 13.5751C88.2479 13.7984 87.9541 14.1181 87.7618 14.4987C87.5471 14.9199 87.4398 15.3878 87.4495 15.8607V23.6029H84.4663L84.4629 23.6106Z" fill="white"/>
<path d="M107.593 10.8833H104.609V23.6105H107.593V10.8833Z" fill="white"/>
<path d="M112.893 6.65186H109.91V23.6106H112.893V6.65186Z" fill="white"/>
<path d="M120.834 23.8623C119.685 23.8927 118.55 23.6163 117.543 23.0613C116.624 22.5336 115.884 21.7431 115.416 20.791C114.9 19.7122 114.645 18.526 114.674 17.3297C114.647 16.1364 114.9 14.9534 115.412 13.8762C115.872 12.9219 116.592 12.1184 117.49 11.5599C118.442 10.9902 119.535 10.7018 120.644 10.7282C121.399 10.7246 122.15 10.851 122.862 11.1019C123.558 11.3506 124.193 11.7463 124.723 12.2622C125.289 12.8262 125.725 13.5075 126.001 14.2584C126.329 15.1837 126.486 16.1614 126.465 17.1433V18.0797H116.07V16.0622H124.977L123.581 16.6538C123.594 16.01 123.483 15.3697 123.254 14.7683C123.056 14.2625 122.717 13.825 122.276 13.5093C121.799 13.1914 121.235 13.0326 120.663 13.0556C120.082 13.038 119.51 13.196 119.019 13.5093C118.566 13.8102 118.208 14.2353 117.988 14.7343C117.748 15.2729 117.629 15.8579 117.639 16.4478V17.8482C117.619 18.5319 117.757 19.2109 118.042 19.8324C118.287 20.3553 118.682 20.7934 119.176 21.0915C119.695 21.3887 120.286 21.5379 120.884 21.523C121.28 21.5274 121.673 21.4655 122.048 21.34C122.388 21.225 122.699 21.036 122.957 20.7867C123.218 20.5287 123.418 20.2159 123.543 19.8707L126.335 20.2027C126.163 20.9182 125.818 21.5801 125.33 22.13C124.817 22.6998 124.175 23.1377 123.458 23.4069C122.622 23.7191 121.736 23.8718 120.844 23.8572" fill="white"/>
<path d="M140.743 23.8428C139.309 23.874 137.894 23.5082 136.653 22.7856C135.468 22.0699 134.513 21.0274 133.903 19.7823C133.214 18.3417 132.876 16.7573 132.917 15.16C132.878 13.5373 133.228 11.9289 133.936 10.4696C134.555 9.22733 135.513 8.187 136.698 7.46972C137.899 6.76539 139.269 6.40499 140.659 6.42777C141.547 6.42023 142.43 6.55825 143.273 6.83638C144.052 7.09658 144.78 7.49188 145.423 8.00431C146.045 8.50128 146.57 9.10938 146.972 9.79791C147.38 10.5007 147.654 11.273 147.782 12.0759H144.663C144.536 11.648 144.346 11.2415 144.1 10.8696C143.865 10.5182 143.573 10.2087 143.236 9.95369C142.893 9.69449 142.506 9.49928 142.094 9.37739C141.637 9.24278 141.163 9.17708 140.686 9.18245C139.831 9.16942 138.991 9.40827 138.27 9.86942C137.529 10.3639 136.947 11.064 136.596 11.8843C136.165 12.9084 135.959 14.0133 135.991 15.1242C135.96 16.2397 136.164 17.3491 136.591 18.3795C136.938 19.2047 137.522 19.9074 138.269 20.3978C139.018 20.8639 139.885 21.1025 140.765 21.0848C141.537 21.1048 142.301 20.9344 142.991 20.5885C143.602 20.2731 144.108 19.7847 144.444 19.1839C144.799 18.5234 144.974 17.7815 144.954 17.0319L145.657 17.146H141.062V14.7454H147.929V16.7714C147.966 18.0873 147.648 19.3887 147.008 20.5382C146.41 21.58 145.527 22.4276 144.462 22.9805C143.312 23.5685 142.036 23.8634 140.745 23.8394" fill="white"/>
<path d="M153.759 10.8833H150.775V23.6105H153.759V10.8833Z" fill="white"/>
<path d="M167.4 10.8833L162.884 23.6105H159.574L155.068 10.8833H158.257L161.198 20.3433H161.334L164.249 10.8833H167.4Z" fill="white"/>
<path d="M173.896 23.8623C172.748 23.8928 171.612 23.6163 170.605 23.0613C169.687 22.5336 168.946 21.7432 168.478 20.791C167.962 19.7122 167.708 18.5261 167.737 17.3297C167.709 16.1364 167.962 14.9534 168.475 13.8762C168.934 12.9218 169.655 12.1184 170.553 11.5599C171.505 10.9901 172.598 10.7018 173.706 10.7282C174.462 10.7246 175.212 10.851 175.925 11.1019C176.621 11.3506 177.255 11.7463 177.785 12.2622C178.351 12.8262 178.787 13.5075 179.063 14.2584C179.392 15.1837 179.549 16.1614 179.528 17.1433V18.0797H169.133V16.0622H178.04L176.644 16.6538C176.657 16.0101 176.546 15.3698 176.317 14.7683C176.12 14.2625 175.78 13.8251 175.339 13.5093C174.863 13.1914 174.298 13.0327 173.727 13.0556C173.146 13.038 172.573 13.196 172.083 13.5093C171.629 13.8102 171.271 14.2353 171.052 14.7343C170.812 15.2729 170.692 15.8579 170.702 16.4478V17.8482C170.682 18.5319 170.82 19.2109 171.105 19.8324C171.351 20.3553 171.745 20.7934 172.239 21.0915C172.759 21.3887 173.349 21.5379 173.947 21.523C174.343 21.5274 174.736 21.4655 175.112 21.34C175.452 21.225 175.762 21.036 176.021 20.7867C176.281 20.5287 176.481 20.2159 176.606 19.8708L179.399 20.2027C179.227 20.9181 178.882 21.58 178.395 22.13C177.881 22.6998 177.239 23.1377 176.522 23.4069C175.687 23.7191 174.8 23.8718 173.908 23.8572" fill="white"/>
<path d="M181.254 23.6106V10.8842H184.15V13.0251H184.286C184.475 12.3345 184.895 11.7298 185.474 11.3116C186.043 10.9141 186.722 10.7057 187.415 10.7157C187.574 10.7157 187.754 10.7233 187.966 10.7387C188.178 10.754 188.346 10.7727 188.484 10.7957V13.547C188.288 13.4882 188.087 13.45 187.883 13.4329C187.623 13.403 187.361 13.3877 187.1 13.3869C186.586 13.378 186.078 13.5001 185.624 13.7419C185.204 13.9666 184.853 14.2999 184.605 14.7072C184.352 15.142 184.224 15.639 184.236 16.1425V23.6106H181.254Z" fill="white"/>
<path d="M199.73 14.2646L197.014 14.5507C196.885 14.1154 196.627 13.7296 196.276 13.444C195.816 13.0961 195.248 12.9243 194.674 12.9597C194.126 12.9409 193.583 13.0829 193.114 13.3683C192.927 13.4715 192.769 13.6224 192.659 13.806C192.548 13.9895 192.487 14.1991 192.483 14.4136C192.479 14.5878 192.514 14.7607 192.586 14.9193C192.657 15.0779 192.764 15.2182 192.898 15.3296C193.306 15.6271 193.777 15.8244 194.275 15.9059L196.444 16.3596C197.429 16.5143 198.352 16.9398 199.111 17.5888C199.405 17.8747 199.636 18.2195 199.789 18.6008C199.942 18.9821 200.013 19.3914 199.998 19.8021C200.008 20.5657 199.765 21.311 199.305 21.92C198.807 22.562 198.146 23.0578 197.392 23.3552C196.499 23.71 195.544 23.8836 194.584 23.866C193.266 23.93 191.96 23.5862 190.844 22.8811C190.386 22.5695 189.998 22.1651 189.706 21.6938C189.413 21.2225 189.223 20.6949 189.146 20.1451L192.064 19.8702C192.166 20.3967 192.471 20.8616 192.913 21.1641C193.415 21.4743 193.998 21.6272 194.587 21.6033C195.189 21.6292 195.784 21.4764 196.299 21.1641C196.49 21.0554 196.65 20.8993 196.763 20.7109C196.876 20.5225 196.939 20.308 196.946 20.0881C196.946 19.3748 196.38 18.889 195.249 18.6308L193.08 18.177C192.074 18.0169 191.136 17.5674 190.379 16.8831C190.087 16.5813 189.86 16.2236 189.709 15.8315C189.559 15.4393 189.489 15.0208 189.504 14.6009C189.487 13.8649 189.715 13.1443 190.15 12.5519C190.618 11.9476 191.242 11.4831 191.954 11.2086C192.807 10.8745 193.717 10.7125 194.632 10.7319C195.876 10.661 197.109 10.9987 198.144 11.6938C198.984 12.3163 199.552 13.2406 199.727 14.2732" fill="white"/>
<path d="M73.3266 27.0605H70.2637V44.0193H73.3266V27.0605Z" fill="white"/>
<path d="M78.6394 36.5785V44.0236H75.6562V31.2965H78.5842V33.4714H78.7328C79.0034 32.7793 79.4768 32.1856 80.0907 31.7689C80.7936 31.3233 81.6149 31.1025 82.4458 31.1356C83.2451 31.1178 84.035 31.31 84.7373 31.6932C85.3953 32.0713 85.9233 32.6409 86.2514 33.3267C86.6312 34.1401 86.8163 35.0312 86.792 35.929V44.0228H83.8088V36.3989C83.8511 35.6736 83.6155 34.9596 83.1502 34.4027C82.9176 34.1583 82.6349 33.9673 82.3217 33.8428C82.0085 33.7184 81.6721 33.6634 81.3357 33.6817C80.8512 33.6716 80.3725 33.789 79.9473 34.0222C79.542 34.2526 79.2108 34.5943 78.9925 35.0071C78.7473 35.495 78.6283 36.0368 78.6462 36.5828" fill="white"/>
<path d="M95.3093 33.6171H88.0352V31.2966H95.3093V33.6171ZM89.8157 28.267H92.7963V40.1957C92.7661 40.5924 92.8827 40.9864 93.1239 41.3023C93.2628 41.4321 93.4274 41.531 93.607 41.5928C93.7866 41.6545 93.9771 41.6777 94.1661 41.6607C94.3102 41.6597 94.454 41.6483 94.5964 41.6266C94.756 41.6036 94.9011 41.5772 95.0267 41.5466L95.5359 43.8901C95.2197 43.9882 94.8966 44.0622 94.5693 44.1114C94.2468 44.1602 93.9211 44.1844 93.595 44.1838C92.5822 44.2428 91.5859 43.9073 90.8138 43.2474C90.4722 42.9167 90.2054 42.5162 90.0315 42.0732C89.8576 41.6301 89.7805 41.1547 89.8055 40.6792V28.2627L89.8157 28.267Z" fill="white"/>
<path d="M102.449 44.2715C101.3 44.3019 100.164 44.0255 99.1575 43.4705C98.2391 42.9428 97.4986 42.1523 97.0306 41.2001C96.5431 40.1131 96.291 38.9347 96.291 37.7428C96.291 36.5508 96.5431 35.3724 97.0306 34.2854C97.4898 33.331 98.2104 32.5276 99.1083 31.9691C100.06 31.3993 101.154 31.111 102.262 31.1374C103.017 31.1338 103.768 31.2602 104.48 31.5111C105.176 31.7598 105.811 32.1555 106.341 32.6714C106.907 33.2354 107.343 33.9167 107.619 34.6676C107.947 35.5929 108.105 36.5705 108.083 37.5525V38.4889H97.685V36.4714H106.592L105.196 37.063C105.209 36.4192 105.098 35.7789 104.868 35.1775C104.671 34.6716 104.331 34.2342 103.891 33.9185C103.414 33.6006 102.85 33.4418 102.278 33.4647C101.697 33.4471 101.124 33.6052 100.634 33.9185C100.181 34.2193 99.8227 34.6445 99.603 35.1434C99.363 35.6821 99.2436 36.267 99.2534 36.857V38.2573C99.2338 38.9411 99.3717 39.6201 99.6565 40.2416C99.9021 40.7645 100.297 41.2026 100.79 41.5006C101.31 41.7979 101.901 41.9471 102.499 41.9322C102.894 41.9366 103.288 41.8747 103.663 41.7492C104.003 41.6342 104.313 41.4452 104.572 41.1959C104.833 40.9379 105.033 40.625 105.158 40.2799L107.95 40.6119C107.778 41.3274 107.433 41.9893 106.945 42.5392C106.432 43.109 105.79 43.5469 105.073 43.8161C104.237 44.1283 103.351 44.281 102.459 44.2664" fill="white"/>
<path d="M109.689 44.0175V31.2929H112.585V33.4338H112.722C112.912 32.7438 113.331 32.1394 113.91 31.7202C114.479 31.3228 115.157 31.1144 115.85 31.1244C116.01 31.1244 116.19 31.132 116.402 31.1474C116.614 31.1627 116.782 31.1814 116.92 31.2044V33.9599C116.724 33.9007 116.522 33.8625 116.319 33.8458C116.059 33.816 115.797 33.8006 115.535 33.7999C115.021 33.791 114.513 33.9131 114.059 34.1548C113.64 34.3795 113.288 34.7129 113.041 35.1202C112.788 35.555 112.66 36.0519 112.672 36.5554V44.0175H109.689Z" fill="white"/>
<path d="M121.024 36.5785V44.0236H118.041V31.2965H120.969V33.4714H121.118C121.388 32.7793 121.862 32.1856 122.475 31.7689C123.178 31.3233 124 31.1025 124.831 31.1356C125.63 31.1178 126.42 31.31 127.122 31.6932C127.78 32.0713 128.308 32.6409 128.636 33.3267C129.016 34.1401 129.201 35.0312 129.177 35.929V44.0228H126.194V36.3989C126.236 35.6736 126 34.9596 125.535 34.4027C125.302 34.1583 125.02 33.9673 124.706 33.8428C124.393 33.7184 124.057 33.6634 123.72 33.6817C123.236 33.6716 122.757 33.789 122.332 34.0222C121.927 34.2526 121.596 34.5943 121.377 35.0071C121.132 35.495 121.013 36.0368 121.031 36.5828" fill="white"/>
<path d="M135.029 44.2832C134.279 44.2962 133.535 44.1463 132.849 43.8439C132.227 43.5712 131.698 43.122 131.328 42.5517C130.94 41.9194 130.747 41.1867 130.772 40.4449C130.75 39.829 130.886 39.2178 131.167 38.67C131.426 38.2074 131.8 37.8197 132.252 37.5446C132.733 37.2528 133.255 37.0353 133.801 36.8994C134.386 36.7492 134.982 36.6445 135.583 36.5861C136.333 36.5021 136.938 36.4295 137.398 36.3682C137.749 36.3403 138.091 36.2404 138.402 36.0745C138.506 36.0055 138.59 35.9102 138.645 35.7981C138.7 35.6861 138.724 35.5614 138.715 35.4369V35.3799C138.73 35.1157 138.689 34.8513 138.596 34.604C138.502 34.3567 138.357 34.132 138.171 33.9447C137.726 33.575 137.156 33.392 136.58 33.4339C135.964 33.4006 135.353 33.5678 134.838 33.9106C134.442 34.1891 134.14 34.5815 133.971 35.036L131.189 34.6393C131.383 33.9115 131.758 33.2447 132.277 32.701C132.798 32.172 133.434 31.7711 134.134 31.5296C134.914 31.2587 135.734 31.1256 136.558 31.1363C137.169 31.1365 137.778 31.2071 138.373 31.3466C138.966 31.4827 139.53 31.723 140.04 32.0566C140.55 32.3952 140.967 32.8571 141.253 33.3998C141.575 34.0538 141.731 34.7777 141.706 35.5067V44.0193H138.826V42.2683H138.741C138.312 43.0703 137.604 43.6857 136.751 43.9972C136.197 44.1995 135.609 44.2965 135.02 44.2832M135.792 42.0699C136.336 42.0847 136.875 41.9615 137.359 41.7115C137.779 41.4901 138.131 41.1593 138.378 40.7539C138.619 40.3632 138.746 39.912 138.743 39.4523V37.9634C138.598 38.0602 138.437 38.1313 138.268 38.1737C138.047 38.2384 137.8 38.2954 137.518 38.3491C137.236 38.4027 136.963 38.4487 136.697 38.4861C136.43 38.5236 136.194 38.5551 136.001 38.5781C135.591 38.6296 135.188 38.7307 134.802 38.8794C134.48 38.9976 134.194 39.1959 133.969 39.4557C133.756 39.7237 133.648 40.0601 133.664 40.4023C133.65 40.6449 133.698 40.887 133.803 41.1059C133.908 41.3248 134.067 41.5133 134.265 41.6537C134.72 41.9504 135.256 42.0971 135.799 42.0733" fill="white"/>
<path d="M150.247 33.6171H142.973V31.2966H150.247V33.6171ZM144.753 28.267H147.736V40.1957C147.706 40.5923 147.822 40.9863 148.063 41.3023C148.202 41.4321 148.367 41.531 148.546 41.5928C148.726 41.6545 148.916 41.6777 149.105 41.6607C149.249 41.6597 149.393 41.6483 149.536 41.6266C149.695 41.6036 149.84 41.5772 149.966 41.5466L150.475 43.8901C150.159 43.9882 149.836 44.0622 149.508 44.1114C149.186 44.1602 148.86 44.1844 148.534 44.1838C147.521 44.2428 146.525 43.9073 145.753 43.2474C145.411 42.9167 145.145 42.5162 144.971 42.0732C144.797 41.6301 144.72 41.1547 144.745 40.6792V28.2627L144.753 28.267Z" fill="white"/>
<path d="M154.874 31.2969H151.891V44.0241H154.874V31.2969Z" fill="white"/>
<path d="M162.604 44.2713C161.474 44.2998 160.358 44.0159 159.379 43.4506C158.47 42.9053 157.739 42.1068 157.275 41.1522C156.761 40.0807 156.507 38.9027 156.533 37.714C156.508 36.5205 156.762 35.3376 157.275 34.2604C157.74 33.3045 158.47 32.5039 159.379 31.9552C160.368 31.4168 161.476 31.1348 162.601 31.1348C163.727 31.1348 164.834 31.4168 165.824 31.9552C166.734 32.5037 167.467 33.3042 167.935 34.2604C168.43 35.3422 168.686 36.5181 168.686 37.708C168.686 38.898 168.43 40.0739 167.935 41.1557C167.466 42.1091 166.733 42.907 165.824 43.454C164.844 44.0193 163.728 44.3032 162.599 44.2747M162.599 41.863C163.212 41.8875 163.814 41.6913 164.296 41.3097C164.762 40.9132 165.109 40.3957 165.301 39.8141C165.532 39.1403 165.645 38.4315 165.635 37.7191C165.645 36.9992 165.532 36.2829 165.301 35.6012C165.109 35.0196 164.762 34.5021 164.296 34.1055C163.813 33.7256 163.212 33.5296 162.599 33.5522C161.988 33.5282 161.389 33.7245 160.91 34.1055C160.438 34.4996 160.086 35.0175 159.891 35.6012C159.663 36.2818 159.552 36.9968 159.565 37.7149C159.555 38.4274 159.668 39.1363 159.9 39.8098C160.093 40.394 160.446 40.9121 160.918 41.3055C161.398 41.6843 161.997 41.8803 162.607 41.8588" fill="white"/>
<path d="M173.319 36.5785V44.0236H170.336V31.2965H173.266V33.4714H173.414C173.685 32.7793 174.158 32.1857 174.772 31.7689C175.475 31.3233 176.296 31.1025 177.127 31.1356C177.926 31.1178 178.716 31.31 179.419 31.6932C180.077 32.0713 180.605 32.6409 180.933 33.3267C181.313 34.1401 181.498 35.0312 181.473 35.929V44.0228H178.49V36.3989C178.532 35.6736 178.297 34.9596 177.832 34.4027C177.599 34.1583 177.316 33.9673 177.003 33.8428C176.69 33.7184 176.354 33.6634 176.017 33.6817C175.533 33.6715 175.054 33.7889 174.629 34.0222C174.223 34.2527 173.892 34.5944 173.674 35.0071C173.429 35.495 173.31 36.0368 173.328 36.5828" fill="white"/>
<path d="M187.318 44.2832C186.568 44.2962 185.825 44.1463 185.138 43.8439C184.515 43.5719 183.985 43.1226 183.613 42.5517C183.226 41.9194 183.032 41.1867 183.057 40.4449C183.035 39.829 183.171 39.2178 183.453 38.67C183.711 38.2074 184.085 37.8197 184.537 37.5446C185.018 37.2528 185.54 37.0353 186.086 36.8994C186.671 36.7492 187.267 36.6445 187.868 36.5861C188.618 36.5021 189.223 36.4295 189.683 36.3682C190.034 36.3403 190.376 36.2404 190.688 36.0745C190.791 36.0055 190.875 35.9102 190.93 35.7981C190.985 35.6861 191.009 35.5614 191 35.4369V35.3799C191.015 35.1157 190.974 34.8513 190.881 34.604C190.787 34.3567 190.642 34.132 190.456 33.9447C190.011 33.575 189.442 33.392 188.866 33.4339C188.249 33.4006 187.638 33.5678 187.123 33.9106C186.727 34.1891 186.425 34.5815 186.256 35.036L183.475 34.6393C183.669 33.9115 184.043 33.2447 184.563 32.701C185.083 32.172 185.719 31.7711 186.42 31.5296C187.199 31.2587 188.019 31.1256 188.843 31.1363C189.454 31.1365 190.063 31.2071 190.658 31.3466C191.251 31.4827 191.815 31.723 192.325 32.0566C192.835 32.3952 193.253 32.8571 193.538 33.3998C193.86 34.0538 194.016 34.7777 193.991 35.5067V44.0193H191.118V42.2683H191.026C190.597 43.0703 189.889 43.6857 189.036 43.9972C188.482 44.1995 187.895 44.2965 187.305 44.2832M188.077 42.0699C188.621 42.0847 189.161 41.9615 189.645 41.7115C190.064 41.4901 190.416 41.1593 190.663 40.7539C190.905 40.3632 191.031 39.912 191.028 39.4523V37.9634C190.883 38.0602 190.722 38.1313 190.553 38.1737C190.332 38.2384 190.085 38.2954 189.803 38.3491C189.522 38.4027 189.247 38.4487 188.982 38.4861C188.716 38.5236 188.479 38.5551 188.286 38.5781C187.876 38.6296 187.473 38.7307 187.087 38.8794C186.766 38.9976 186.479 39.1959 186.254 39.4557C186.041 39.7237 185.933 40.0601 185.949 40.4023C185.936 40.6449 185.983 40.887 186.089 41.1059C186.194 41.3248 186.353 41.5133 186.55 41.6537C187.005 41.9504 187.542 42.0971 188.084 42.0733" fill="white"/>
<path d="M199.202 27.0605H196.219V44.0193H199.202V27.0605Z" fill="white"/>
<path d="M107.593 6.65186H104.609V9.64403H107.593V6.65186Z" fill="white"/>
<path d="M153.759 6.65186H150.775V9.64403H153.759V6.65186Z" fill="white"/>
<path d="M154.874 27.0605H151.891V30.0527H154.874V27.0605Z" fill="white"/>
</svg>
