<svg width="43" height="41" viewBox="0 0 43 41" fill="none" xmlns="http://www.w3.org/2000/svg">
<path d="M16.009 9.53786C18.032 4.00227 19.0435 1.23447 20.7182 0.81738C21.2339 0.688934 21.7733 0.688934 22.289 0.81738C23.9638 1.23447 24.9753 4.00227 26.9982 9.53785L27.619 11.2365C27.989 12.249 28.174 12.7552 28.5444 13.0882C28.6656 13.1971 28.7996 13.2908 28.9435 13.3672C29.3834 13.6009 29.9224 13.6009 31.0003 13.6009H31.8469C38.0783 13.6009 41.1941 13.6009 42.1687 14.9125C42.6116 15.5086 42.837 16.2385 42.8074 16.9807C42.7421 18.6134 40.169 20.3704 35.0228 23.8842C34.1229 24.4986 33.673 24.8058 33.4417 25.2425C33.3312 25.451 33.2585 25.6775 33.2269 25.9113C33.1608 26.4011 33.3507 26.9206 33.7304 27.9596C35.9475 34.0264 37.056 37.0598 35.9877 38.4723C35.66 38.9057 35.2288 39.25 34.7337 39.4737C33.1197 40.2028 30.4521 38.4797 25.117 35.0333L23.457 33.961C22.6167 33.4182 22.1965 33.1468 21.7325 33.0933C21.5804 33.0758 21.4268 33.0758 21.2747 33.0933C20.8107 33.1468 20.3906 33.4182 19.5502 33.961L17.8902 35.0333C12.5551 38.4797 9.88753 40.2028 8.27359 39.4737C7.77844 39.25 7.34728 38.9057 7.01953 38.4723C5.95125 37.0598 7.0413 34.077 9.22139 28.1114L9.29558 27.9084C9.66736 26.8911 9.85326 26.3824 9.78816 25.8942C9.7579 25.6672 9.68886 25.447 9.58406 25.2434C9.35869 24.8054 8.91561 24.494 8.02945 23.8712C2.9995 20.336 0.484528 18.5684 0.443828 16.9317C0.425826 16.2077 0.65013 15.4985 1.08114 14.9165C2.05559 13.6009 5.1296 13.6009 11.2776 13.6009H12.007C13.0849 13.6009 13.6238 13.6009 14.0638 13.3672C14.2077 13.2908 14.3417 13.1971 14.4628 13.0882C14.8333 12.7552 15.0183 12.249 15.3883 11.2365L16.009 9.53786Z" fill="#FABC1C"/>
</svg>
