<svg width="32" height="32" viewBox="0 0 32 32" fill="none" xmlns="http://www.w3.org/2000/svg">
<path d="M14.928 18.8393L6.88406 26.8842C6.39605 27.3722 5.60467 27.3719 5.11648 26.8842C4.62833 26.396 4.62833 25.6048 5.11648 25.1166L13.3509 16.8813L14.928 18.8393ZM25.1165 5.1166C25.6046 4.62845 26.3959 4.62845 26.8841 5.1166C27.3718 5.60479 27.3721 6.39617 26.8841 6.88418L18.6477 15.1195L17.0706 13.1615L25.1165 5.1166Z" fill="white"/>
<path d="M6.06457 4.3335C4.98731 4.3335 4.44868 4.3335 4.22348 4.61703C4.15325 4.70546 4.10389 4.8086 4.07909 4.91877C3.99956 5.27201 4.33746 5.69147 5.01325 6.53039L21.6345 27.1637C21.8112 27.3831 21.8996 27.4927 22.016 27.5618C22.0544 27.5846 22.0947 27.6039 22.1366 27.6195C22.2634 27.6668 22.4042 27.6668 22.6859 27.6668H25.9351C27.0124 27.6668 27.551 27.6668 27.7762 27.3833C27.8465 27.2949 27.8958 27.1917 27.9206 27.0816C28.0002 26.7283 27.6623 26.3089 26.9865 25.4699L10.3652 4.8366C10.1885 4.61727 10.1001 4.5076 9.98375 4.43853C9.94534 4.41573 9.90497 4.39641 9.86312 4.3808C9.73632 4.3335 9.59549 4.3335 9.31385 4.3335H6.06457Z" fill="white"/>
</svg>
